<svg width="512" height="512" viewBox="0 0 512 512" fill="none" xmlns="http://www.w3.org/2000/svg">
<mask id="path-1-inside-1_621_24" fill="white">
<path d="M45 226.686C45 234.643 51.5909 241.093 59.7209 241.093C67.851 241.093 74.4419 234.643 74.4419 226.686H45ZM80.7917 325.161C77.6805 317.81 69.0691 314.32 61.5579 317.364C54.0467 320.409 50.4797 328.836 53.5909 336.187L80.7917 325.161ZM289.997 443.17L300.638 425.578L275.3 410.9L264.66 428.494L289.997 443.17ZM211.362 425.578L222.003 443.17L247.338 428.494L236.698 410.9L211.362 425.578ZM264.66 428.494C260.878 434.749 251.122 434.749 247.338 428.494L222.003 443.17C237.187 468.277 274.813 468.277 289.997 443.17L264.66 428.494ZM226.558 77.814H285.442V49H226.558V77.814ZM437.558 226.686V245.896H467V226.686H437.558ZM173.612 375.398C148.97 374.981 136.058 373.448 125.937 369.345L114.671 395.965C130.471 402.369 148.466 403.791 173.105 404.206L173.612 375.398ZM53.5909 336.187C65.0456 363.251 87.0167 384.754 114.671 395.965L125.937 369.345C105.498 361.058 89.2582 345.166 80.7917 325.161L53.5909 336.187ZM437.558 245.896C437.558 268.469 437.55 284.678 436.659 297.467C435.776 310.128 434.076 318.384 431.209 325.161L458.409 336.187C463.012 325.315 465.047 313.557 466.032 299.428C467.008 285.431 467 268.075 467 245.896H437.558ZM338.895 404.206C363.533 403.791 381.53 402.369 397.329 395.965L386.062 369.345C375.942 373.448 363.029 374.981 338.388 375.398L338.895 404.206ZM431.209 325.161C422.741 345.166 406.503 361.058 386.062 369.345L397.329 395.965C424.983 384.754 446.954 363.251 458.409 336.187L431.209 325.161ZM285.442 77.814C317.851 77.814 341.126 77.8292 359.28 79.5185C377.216 81.1874 388.628 84.388 397.725 89.8445L413.11 65.2765C398.607 56.5794 382.156 52.7034 362.067 50.8339C342.196 48.9848 317.282 49 285.442 49V77.814ZM467 226.686C467 195.525 467.016 171.143 465.126 151.695C463.216 132.034 459.255 115.934 450.369 101.742L425.265 116.797C430.841 125.701 434.111 136.87 435.817 154.423C437.542 172.19 437.558 194.967 437.558 226.686H467ZM397.725 89.8445C408.95 96.5762 418.388 105.812 425.265 116.797L450.369 101.742C441.064 86.8797 428.296 74.384 413.11 65.2765L397.725 89.8445ZM226.558 49C194.718 49 169.804 48.9848 149.933 50.8339C129.843 52.7034 113.392 56.5794 98.891 65.2765L114.274 89.8445C123.372 84.388 134.785 81.1874 152.72 79.5185C170.874 77.8292 194.148 77.814 226.558 77.814V49ZM74.4419 226.686C74.4419 194.967 74.4574 172.19 76.1835 154.423C77.8887 136.87 81.1591 125.701 86.7344 116.797L61.6311 101.742C52.7446 115.934 48.7841 132.034 46.8739 151.695C44.9845 171.143 45 195.525 45 226.686H74.4419ZM98.891 65.2765C83.7051 74.384 70.9371 86.8797 61.6311 101.742L86.7344 116.797C93.6128 105.812 103.05 96.5762 114.274 89.8445L98.891 65.2765ZM236.698 410.9C232.713 404.311 229.216 398.497 225.814 393.929C222.23 389.119 218.122 384.787 212.423 381.543L197.621 406.451C198.552 406.98 199.819 407.946 202.02 410.9C204.403 414.101 207.094 418.521 211.362 425.578L236.698 410.9ZM173.105 404.206C181.723 404.352 187.182 404.459 191.343 404.909C195.232 405.332 196.739 405.948 197.621 406.451L212.423 381.543C206.677 378.271 200.698 376.932 194.584 376.27C188.743 375.638 181.684 375.534 173.612 375.398L173.105 404.206ZM300.638 425.578C304.905 418.521 307.596 414.101 309.979 410.9C312.179 407.946 313.447 406.98 314.377 406.451L299.576 381.543C293.878 384.787 289.768 389.119 286.186 393.929C282.784 398.497 279.287 404.311 275.3 410.9L300.638 425.578ZM338.388 375.398C330.315 375.534 323.257 375.638 317.416 376.27C311.302 376.932 305.323 378.271 299.576 381.543L314.377 406.451C315.261 405.948 316.768 405.332 320.656 404.909C324.817 404.459 330.276 404.352 338.895 404.206L338.388 375.398Z"/>
</mask>
<path d="M45 226.686C45 234.643 51.5909 241.093 59.7209 241.093C67.851 241.093 74.4419 234.643 74.4419 226.686H45ZM80.7917 325.161C77.6805 317.81 69.0691 314.32 61.5579 317.364C54.0467 320.409 50.4797 328.836 53.5909 336.187L80.7917 325.161ZM289.997 443.17L300.638 425.578L275.3 410.9L264.66 428.494L289.997 443.17ZM211.362 425.578L222.003 443.17L247.338 428.494L236.698 410.9L211.362 425.578ZM264.66 428.494C260.878 434.749 251.122 434.749 247.338 428.494L222.003 443.17C237.187 468.277 274.813 468.277 289.997 443.17L264.66 428.494ZM226.558 77.814H285.442V49H226.558V77.814ZM437.558 226.686V245.896H467V226.686H437.558ZM173.612 375.398C148.97 374.981 136.058 373.448 125.937 369.345L114.671 395.965C130.471 402.369 148.466 403.791 173.105 404.206L173.612 375.398ZM53.5909 336.187C65.0456 363.251 87.0167 384.754 114.671 395.965L125.937 369.345C105.498 361.058 89.2582 345.166 80.7917 325.161L53.5909 336.187ZM437.558 245.896C437.558 268.469 437.55 284.678 436.659 297.467C435.776 310.128 434.076 318.384 431.209 325.161L458.409 336.187C463.012 325.315 465.047 313.557 466.032 299.428C467.008 285.431 467 268.075 467 245.896H437.558ZM338.895 404.206C363.533 403.791 381.53 402.369 397.329 395.965L386.062 369.345C375.942 373.448 363.029 374.981 338.388 375.398L338.895 404.206ZM431.209 325.161C422.741 345.166 406.503 361.058 386.062 369.345L397.329 395.965C424.983 384.754 446.954 363.251 458.409 336.187L431.209 325.161ZM285.442 77.814C317.851 77.814 341.126 77.8292 359.28 79.5185C377.216 81.1874 388.628 84.388 397.725 89.8445L413.11 65.2765C398.607 56.5794 382.156 52.7034 362.067 50.8339C342.196 48.9848 317.282 49 285.442 49V77.814ZM467 226.686C467 195.525 467.016 171.143 465.126 151.695C463.216 132.034 459.255 115.934 450.369 101.742L425.265 116.797C430.841 125.701 434.111 136.87 435.817 154.423C437.542 172.19 437.558 194.967 437.558 226.686H467ZM397.725 89.8445C408.95 96.5762 418.388 105.812 425.265 116.797L450.369 101.742C441.064 86.8797 428.296 74.384 413.11 65.2765L397.725 89.8445ZM226.558 49C194.718 49 169.804 48.9848 149.933 50.8339C129.843 52.7034 113.392 56.5794 98.891 65.2765L114.274 89.8445C123.372 84.388 134.785 81.1874 152.72 79.5185C170.874 77.8292 194.148 77.814 226.558 77.814V49ZM74.4419 226.686C74.4419 194.967 74.4574 172.19 76.1835 154.423C77.8887 136.87 81.1591 125.701 86.7344 116.797L61.6311 101.742C52.7446 115.934 48.7841 132.034 46.8739 151.695C44.9845 171.143 45 195.525 45 226.686H74.4419ZM98.891 65.2765C83.7051 74.384 70.9371 86.8797 61.6311 101.742L86.7344 116.797C93.6128 105.812 103.05 96.5762 114.274 89.8445L98.891 65.2765ZM236.698 410.9C232.713 404.311 229.216 398.497 225.814 393.929C222.23 389.119 218.122 384.787 212.423 381.543L197.621 406.451C198.552 406.98 199.819 407.946 202.02 410.9C204.403 414.101 207.094 418.521 211.362 425.578L236.698 410.9ZM173.105 404.206C181.723 404.352 187.182 404.459 191.343 404.909C195.232 405.332 196.739 405.948 197.621 406.451L212.423 381.543C206.677 378.271 200.698 376.932 194.584 376.27C188.743 375.638 181.684 375.534 173.612 375.398L173.105 404.206ZM300.638 425.578C304.905 418.521 307.596 414.101 309.979 410.9C312.179 407.946 313.447 406.98 314.377 406.451L299.576 381.543C293.878 384.787 289.768 389.119 286.186 393.929C282.784 398.497 279.287 404.311 275.3 410.9L300.638 425.578ZM338.388 375.398C330.315 375.534 323.257 375.638 317.416 376.27C311.302 376.932 305.323 378.271 299.576 381.543L314.377 406.451C315.261 405.948 316.768 405.332 320.656 404.909C324.817 404.459 330.276 404.352 338.895 404.206L338.388 375.398Z" fill="#1C274C"/>
<path d="M289.997 443.17L275.63 467.975L304.366 418.366L289.997 443.17ZM275.3 410.9L289.666 386.095L260.932 435.704L275.3 410.9ZM211.362 425.578L196.991 400.776L225.731 450.381L211.362 425.578ZM212.423 381.543L237.066 396.186L187.782 366.898L212.423 381.543ZM262.962 460.636L275.629 467.974L304.366 418.366L291.698 411.028L262.962 460.636ZM302.336 393.433L289.666 386.095L260.934 435.705L273.604 443.043L302.336 393.433ZM209.659 393.436L196.991 400.776L225.733 450.381L238.401 443.041L209.659 393.436ZM249.038 460.636L261.706 453.298L232.97 403.69L220.302 411.028L249.038 460.636ZM74.4419 198.021H45V255.351H74.4419V198.021ZM64.3595 362.753L91.5603 351.727L70.0231 298.596L42.8223 309.622L64.3595 362.753ZM144.698 389.298L144.444 403.701L201.765 404.71L202.019 390.307L144.698 389.298ZM93.9061 371.482L88.2727 384.792L141.069 407.138L146.702 393.828L93.9061 371.482ZM434.04 357.24L447.64 362.753L469.178 309.622L455.577 304.109L434.04 357.24ZM367.302 389.299L367.049 374.894L309.728 375.901L309.981 390.306L367.302 389.299ZM365.297 393.827L370.931 407.137L423.727 384.793L418.094 371.483L365.297 393.827ZM381.123 62.3472L373.43 74.6312L422.02 105.058L429.712 92.7737L381.123 62.3472ZM452.56 133.853L465.112 126.325L435.626 77.1587L423.074 84.6865L452.56 133.853ZM130.878 62.3477L123.186 50.0637L74.5958 80.4892L82.2876 92.7732L130.878 62.3477ZM88.9261 84.6867L76.3745 77.1589L46.8878 126.325L59.4394 133.852L88.9261 84.6867ZM229.664 408.641L237.065 396.187L187.782 366.898L180.38 379.351L229.664 408.641ZM315.006 400.774L289.669 386.097L260.932 435.704L286.269 450.382L315.006 400.774ZM250.293 453.299L275.63 467.975L304.365 418.365L279.027 403.69L250.293 453.299ZM236.371 467.974L261.706 453.298L232.97 403.69L207.635 418.366L236.371 467.974ZM222.329 386.097L196.993 400.775L225.731 450.381L251.067 435.704L222.329 386.097ZM314.107 77.814V49H256.777V77.814H314.107ZM197.893 49V77.814H255.223V49H197.893ZM437.558 274.561H467V217.231H437.558V274.561ZM467 198.021H437.558V255.351H467V198.021ZM99.5395 358.172L88.2727 384.792L141.069 407.138L152.335 380.517L99.5395 358.172ZM201.765 404.71L202.272 375.902L144.951 374.893L144.444 403.701L201.765 404.71ZM420.44 351.727L447.64 362.753L469.178 309.622L441.977 298.596L420.44 351.727ZM423.727 384.793L412.46 358.172L359.664 380.517L370.931 407.137L423.727 384.793ZM309.728 375.901L310.234 404.71L367.555 403.702L367.049 374.894L309.728 375.901ZM422.02 105.058L437.404 80.4898L388.815 50.0632L373.43 74.6312L422.02 105.058ZM435.626 77.1586L410.522 92.214L440.008 141.38L465.112 126.325L435.626 77.1586ZM74.5957 80.4891L89.9791 105.057L138.57 74.6319L123.186 50.0639L74.5957 80.4891ZM101.478 92.2142L76.3743 77.1589L46.8879 126.325L71.9912 141.38L101.478 92.2142ZM187.781 366.899L172.979 391.808L222.263 421.095L237.066 396.186L187.781 366.899ZM339.02 391.808L324.219 366.899L274.933 396.186L289.735 421.095L339.02 391.808ZM289.997 443.17L240.943 413.5L240.941 413.502L289.997 443.17ZM275.3 410.9L226.249 381.223L226.244 381.232L275.3 410.9ZM211.362 425.578L162.305 455.245L162.307 455.249L211.362 425.578ZM247.338 428.494L198.282 458.162L198.288 458.172L247.338 428.494ZM80.7917 325.161L27.9952 347.505L27.9955 347.506L80.7917 325.161ZM53.5909 336.187L0.794477 358.532L0.795021 358.533L53.5909 336.187ZM173.105 404.206L174.076 346.884L174.07 346.884L173.105 404.206ZM114.671 395.965L93.1323 449.095L93.1342 449.096L114.671 395.965ZM458.409 336.187L405.615 313.838L405.613 313.842L458.409 336.187ZM338.388 375.398L339.357 432.719L339.358 432.719L338.388 375.398ZM397.329 395.965L418.867 449.095L418.867 449.095L397.329 395.965ZM397.725 89.8445L368.238 139.01L368.24 139.011L397.725 89.8445ZM450.369 101.742L498.961 71.319L498.96 71.3175L450.369 101.742ZM98.891 65.2765L69.4046 16.1106L69.4045 16.1107L98.891 65.2765ZM61.6311 101.742L13.0406 71.3165L13.0406 71.3166L61.6311 101.742ZM212.423 381.543L240.788 331.721L240.787 331.721L212.423 381.543ZM300.638 425.578L349.693 455.249L349.698 455.241L300.638 425.578ZM264.66 428.494L215.603 398.826L215.602 398.828L264.66 428.494ZM222.003 443.17L271.059 413.502L271.057 413.499L222.003 443.17ZM236.698 410.9L187.641 440.567L187.641 440.568L236.698 410.9ZM173.612 375.398L172.642 432.719L172.643 432.719L173.612 375.398ZM125.937 369.345L104.397 422.474L104.398 422.475L125.937 369.345ZM436.659 297.467L493.85 301.457L493.851 301.452L436.659 297.467ZM431.209 325.161L484.004 347.508L484.006 347.502L431.209 325.161ZM466.032 299.428L523.223 303.417L523.224 303.414L466.032 299.428ZM338.895 404.206L337.929 346.884L337.924 346.884L338.895 404.206ZM386.062 369.345L364.523 316.215L364.522 316.215L386.062 369.345ZM359.28 79.5185L353.968 136.602L353.969 136.602L359.28 79.5185ZM413.11 65.2765L442.596 16.1105L442.594 16.1092L413.11 65.2765ZM362.067 50.8339L367.379 -6.24945L367.379 -6.24947L362.067 50.8339ZM465.126 151.695L408.064 157.238L408.064 157.241L465.126 151.695ZM425.265 116.797L376.673 147.22L376.677 147.226L425.265 116.797ZM435.817 154.423L492.879 148.882L492.878 148.878L435.817 154.423ZM149.933 50.8339L155.245 107.917L155.245 107.917L149.933 50.8339ZM114.274 89.8445L84.7881 40.6785L84.7877 40.6787L114.274 89.8445ZM152.72 79.5185L147.408 22.4351L147.408 22.4351L152.72 79.5185ZM76.1835 154.423L19.1221 148.879L19.1221 148.879L76.1835 154.423ZM86.7344 116.797L38.144 86.3717L38.1438 86.3721L86.7344 116.797ZM46.8739 151.695L103.935 157.239L103.935 157.239L46.8739 151.695ZM225.814 393.929L271.796 359.689L271.791 359.682L271.786 359.675L225.814 393.929ZM197.621 406.451L169.21 456.246L169.264 456.277L169.319 456.308L197.621 406.451ZM202.02 410.9L248.008 376.668L248.002 376.659L247.996 376.651L202.02 410.9ZM191.343 404.909L197.538 347.915L197.519 347.912L197.5 347.91L191.343 404.909ZM194.584 376.27L200.762 319.274L200.751 319.272L194.584 376.27ZM309.979 410.9L263.999 376.657L263.995 376.662L309.979 410.9ZM314.377 406.451L342.684 456.306L342.722 456.284L342.76 456.263L314.377 406.451ZM299.576 381.543L271.215 331.719L271.208 331.723L299.576 381.543ZM286.186 393.929L240.205 359.687L240.204 359.689L286.186 393.929ZM317.416 376.27L311.249 319.272L311.238 319.274L317.416 376.27ZM320.656 404.909L314.499 347.91L314.48 347.913L314.462 347.915L320.656 404.909ZM-12.33 226.686C-12.33 267.464 21.0991 298.423 59.7209 298.423V183.763C82.0826 183.763 102.33 201.822 102.33 226.686H-12.33ZM59.7209 298.423C98.3427 298.423 131.772 267.464 131.772 226.686H17.1119C17.1119 201.822 37.3593 183.763 59.7209 183.763V298.423ZM133.588 302.817C117.955 265.878 75.8072 249.727 40.0212 264.233L83.0946 370.495C62.331 378.912 37.4057 369.741 27.9952 347.505L133.588 302.817ZM40.0212 264.233C3.63315 278.983 -15.1173 320.934 0.794477 358.532L106.387 313.843C116.077 336.738 104.46 361.835 83.0946 370.495L40.0212 264.233ZM339.052 472.841L349.693 455.249L251.583 395.908L240.943 413.5L339.052 472.841ZM226.244 381.232L215.603 398.826L313.716 458.162L324.357 440.568L226.244 381.232ZM162.307 455.249L172.948 472.841L271.057 413.499L260.417 395.907L162.307 455.249ZM296.395 398.826L285.754 381.232L187.641 440.568L198.282 458.162L296.395 398.826ZM215.602 398.828C225.613 382.273 242.436 375.855 256 375.855C269.563 375.855 286.379 382.272 296.389 398.817L198.288 458.172C224.374 501.287 287.624 501.309 313.717 458.16L215.602 398.828ZM172.946 472.839C210.436 534.827 301.564 534.827 339.054 472.839L240.941 413.502C244.825 407.079 251.34 404.67 256 404.67C260.66 404.67 267.175 407.079 271.059 413.502L172.946 472.839ZM226.558 135.144H285.442V20.484H226.558V135.144ZM285.442 -8.33H226.558V106.33H285.442V-8.33ZM380.228 226.686V245.896H494.888V226.686H380.228ZM524.33 245.896V226.686H409.67V245.896H524.33ZM174.582 318.076C162.944 317.879 155.966 317.433 151.452 316.868C147.315 316.35 146.689 315.896 147.477 316.215L104.398 422.475C125.434 431.003 148.105 432.304 172.642 432.719L174.582 318.076ZM93.1342 449.096C119.796 459.903 147.467 461.112 172.139 461.528L174.07 346.884C149.466 346.47 141.145 344.836 136.207 342.834L93.1342 449.096ZM0.795021 358.533C18.2764 399.836 51.6322 432.272 93.1323 449.095L136.209 342.835C122.401 337.237 111.815 326.667 106.387 313.842L0.795021 358.533ZM147.478 316.215C140.881 313.541 136.027 308.579 133.588 302.816L27.9955 347.506C42.4894 381.752 70.1145 408.575 104.397 422.474L147.478 316.215ZM380.228 245.896C380.228 269.28 380.188 283.15 379.468 293.482L493.851 301.452C494.913 286.205 494.888 267.658 494.888 245.896H380.228ZM379.468 293.477C378.793 303.152 377.779 304.313 378.411 302.82L484.006 347.502C490.373 332.455 492.759 317.104 493.85 301.457L379.468 293.477ZM511.203 358.537C519.306 339.398 522.029 320.545 523.223 303.417L408.841 295.44C408.065 306.569 406.718 311.232 405.615 313.838L511.203 358.537ZM523.224 303.414C524.37 286.963 524.33 267.283 524.33 245.896H409.67C409.67 268.867 409.646 283.898 408.841 295.443L523.224 303.414ZM339.86 461.528C364.532 461.112 392.205 459.903 418.867 449.095L375.791 342.835C370.855 344.835 362.535 346.47 337.929 346.884L339.86 461.528ZM364.522 316.215C365.311 315.895 364.685 316.35 360.548 316.868C356.034 317.433 349.056 317.879 337.418 318.076L339.358 432.719C363.893 432.304 386.567 431.003 407.603 422.474L364.522 316.215ZM378.413 302.814C375.973 308.58 371.118 313.541 364.523 316.215L407.602 422.474C441.887 408.575 469.51 381.751 484.004 347.508L378.413 302.814ZM418.867 449.095C460.367 432.272 493.723 399.837 511.205 358.533L405.613 313.842C400.185 326.666 389.598 337.237 375.79 342.835L418.867 449.095ZM285.442 135.144C318.951 135.144 339.09 135.217 353.968 136.602L364.592 22.4351C343.162 20.441 316.752 20.484 285.442 20.484V135.144ZM353.969 136.602C367.835 137.892 369.577 139.813 368.238 139.01L427.213 40.6794C407.678 28.9629 386.597 24.4826 364.592 22.4351L353.969 136.602ZM442.594 16.1092C417.661 1.15794 391.549 -4.00031 367.379 -6.24945L356.755 107.917C372.764 109.407 379.552 112.001 383.626 114.444L442.594 16.1092ZM367.379 -6.24947C344.238 -8.40286 316.208 -8.33 285.442 -8.33V106.33C318.357 106.33 340.154 106.373 356.755 107.917L367.379 -6.24947ZM524.33 226.686C524.33 196.647 524.409 169.01 522.187 146.149L408.064 157.241C409.623 173.275 409.67 194.403 409.67 226.686H524.33ZM522.187 146.153C519.857 122.163 514.485 96.1134 498.961 71.319L401.777 132.165C404.025 135.755 406.575 141.904 408.064 157.238L522.187 146.153ZM376.677 147.226C375.608 145.518 377.469 146.729 378.756 159.968L492.878 148.878C490.754 127.012 486.075 105.884 473.853 86.3682L376.677 147.226ZM378.756 159.964C380.149 174.314 380.228 193.821 380.228 226.686H494.888C494.888 196.114 494.936 170.065 492.879 148.882L378.756 159.964ZM368.24 139.011C371.787 141.138 374.646 143.982 376.673 147.22L473.857 86.3742C462.129 67.6425 446.114 52.0144 427.21 40.6778L368.24 139.011ZM498.96 71.3175C484.805 48.7101 465.46 29.8227 442.596 16.1105L383.623 114.442C391.132 118.945 397.322 125.049 401.778 132.166L498.96 71.3175ZM226.558 -8.33C195.792 -8.33 167.762 -8.40286 144.621 -6.24947L155.245 107.917C171.846 106.373 193.643 106.33 226.558 106.33V-8.33ZM144.621 -6.24947C120.452 -4.00044 94.3373 1.15764 69.4046 16.1106L128.377 114.442C132.448 112.001 139.234 109.407 155.245 107.917L144.621 -6.24947ZM143.761 139.01C142.422 139.813 144.166 137.892 158.032 136.602L147.408 22.4351C125.404 24.4826 104.323 28.963 84.7881 40.6785L143.761 139.01ZM158.031 136.602C172.909 135.217 193.048 135.144 226.558 135.144V20.484C195.247 20.484 168.838 20.441 147.408 22.4351L158.031 136.602ZM131.772 226.686C131.772 193.82 131.851 174.315 133.245 159.966L19.1221 148.879C17.0639 170.064 17.1119 196.115 17.1119 226.686H131.772ZM133.245 159.966C134.531 146.73 136.393 145.517 135.325 147.222L38.1438 86.3721C25.9256 105.885 21.2467 127.01 19.1221 148.879L133.245 159.966ZM13.0406 71.3166C-2.48543 96.1125 -7.85696 122.164 -10.1875 146.152L103.935 157.239C105.425 141.904 107.975 135.756 110.222 132.167L13.0406 71.3166ZM-10.1875 146.152C-12.4083 169.011 -12.33 196.646 -12.33 226.686H102.33C102.33 194.404 102.377 173.274 103.935 157.239L-10.1875 146.152ZM69.4045 16.1107C46.5407 29.8229 27.1959 48.7099 13.0406 71.3165L110.222 132.167C114.678 125.049 120.869 118.945 128.377 114.442L69.4045 16.1107ZM135.325 147.222C137.354 143.982 140.214 141.137 143.761 139.01L84.7877 40.6787C65.8855 52.0151 49.8717 67.6423 38.144 86.3717L135.325 147.222ZM285.755 381.234C282.312 375.54 277.221 366.974 271.796 359.689L179.832 428.169C181.211 430.02 183.115 433.083 187.641 440.567L285.755 381.234ZM271.786 359.675C265.436 351.153 255.744 340.236 240.788 331.721L184.059 431.364C182.422 430.432 181.151 429.406 180.309 428.602C179.549 427.875 179.369 427.548 179.843 428.183L271.786 359.675ZM169.319 456.308C165.726 454.269 162.471 451.828 159.738 449.215C157.448 447.027 156.207 445.367 156.045 445.149L247.996 376.651C243.051 370.013 236.179 362.417 225.924 356.595L169.319 456.308ZM156.033 445.133C155.937 445.004 156.302 445.487 157.479 447.355C158.652 449.216 160.113 451.62 162.305 455.245L260.419 395.912C256.738 389.824 252.423 382.598 248.008 376.668L156.033 445.133ZM172.134 461.528C176.55 461.602 179.558 461.659 181.935 461.74C183.071 461.779 183.871 461.817 184.439 461.852C185.003 461.887 185.218 461.911 185.186 461.907L197.5 347.91C190.141 347.116 181.614 347.012 174.076 346.884L172.134 461.528ZM185.149 461.903C185.081 461.896 183.19 461.7 180.288 460.895C176.804 459.928 172.992 458.404 169.21 456.246L226.032 356.657C215.712 350.768 205.581 348.789 197.538 347.915L185.149 461.903ZM240.787 331.721C225.655 323.106 211.097 320.394 200.762 319.274L188.406 433.266C189.399 433.374 189.186 433.413 188.307 433.169C187.319 432.895 185.785 432.347 184.06 431.365L240.787 331.721ZM200.751 319.272C191.722 318.295 181.645 318.195 174.58 318.076L172.643 432.719C181.723 432.873 185.763 432.98 188.417 433.267L200.751 319.272ZM349.698 455.241C351.89 451.615 353.349 449.212 354.521 447.352C355.697 445.485 356.061 445.006 355.962 445.138L263.995 376.662C259.575 382.598 255.257 389.831 251.578 395.916L349.698 455.241ZM355.958 445.144C355.795 445.363 354.553 447.025 352.263 449.214C349.528 451.827 346.274 454.267 342.684 456.306L286.07 356.597C275.819 362.418 268.947 370.013 263.999 376.657L355.958 445.144ZM271.208 331.723C256.26 340.234 246.565 351.147 240.205 359.687L332.166 428.171C332.632 427.545 332.45 427.876 331.689 428.603C330.847 429.407 329.577 430.432 327.944 431.362L271.208 331.723ZM240.204 359.689C234.782 366.97 229.688 375.539 226.249 381.223L324.351 440.578C328.885 433.084 330.787 430.023 332.168 428.169L240.204 359.689ZM337.42 318.076C330.354 318.195 320.277 318.295 311.249 319.272L323.582 433.267C326.237 432.98 330.276 432.873 339.357 432.719L337.42 318.076ZM311.238 319.274C300.9 320.394 286.345 323.107 271.215 331.719L327.937 431.366C326.214 432.347 324.681 432.895 323.693 433.169C322.814 433.413 322.601 433.373 323.594 433.266L311.238 319.274ZM342.76 456.263C341.132 457.19 339.243 458.145 337.128 459.022C335.087 459.867 333.248 460.469 331.709 460.895C328.809 461.699 326.92 461.896 326.851 461.903L314.462 347.915C306.407 348.79 296.296 350.77 285.995 356.64L342.76 456.263ZM326.813 461.907C326.782 461.911 326.996 461.887 327.561 461.852C328.129 461.817 328.929 461.779 330.064 461.74C332.441 461.659 335.449 461.602 339.866 461.528L337.924 346.884C330.385 347.012 321.858 347.116 314.499 347.91L326.813 461.907Z" fill="url(#paint0_linear_621_24)" mask="url(#path-1-inside-1_621_24)"/>
<rect x="129" y="158" width="254" height="28" rx="14" fill="#37B9F7"/>
<rect x="96" y="214" width="319" height="28" rx="14" fill="url(#paint1_linear_621_24)"/>
<rect x="118" y="270" width="275" height="28" rx="14" fill="#2873ED"/>
<defs>
<linearGradient id="paint0_linear_621_24" x1="256" y1="49" x2="256" y2="462" gradientUnits="userSpaceOnUse">
<stop stop-color="#38BDF8"/>
<stop offset="1" stop-color="#2563EB"/>
</linearGradient>
<linearGradient id="paint1_linear_621_24" x1="223" y1="400" x2="300" y2="131.5" gradientUnits="userSpaceOnUse">
<stop stop-color="#2978EE"/>
<stop offset="1" stop-color="#37B9F7"/>
</linearGradient>
</defs>
</svg>
