<svg width="512" height="512" viewBox="0 0 512 512" fill="none" xmlns="http://www.w3.org/2000/svg">
<g clip-path="url(#clip0_621_42)">
<g clip-path="url(#clip1_621_42)">
<path d="M82.16 438.16H110.8C116.387 438.21 121.843 436.476 126.376 433.21C130.908 429.943 134.28 425.316 136 420H160C177.88 421.064 195.659 423.416 213.2 427.04C225.054 430.54 236.423 435.512 247.04 441.84C263.121 451.069 281.339 455.925 299.88 455.925C318.421 455.925 336.639 451.069 352.72 441.84L443.76 389.28C446.684 387.632 449.241 385.407 451.277 382.738C453.312 380.07 454.783 377.015 455.6 373.76C457.36 367.204 456.444 360.217 453.054 354.336C449.663 348.456 444.076 344.162 437.52 342.4C432.428 340.989 427.019 341.242 422.08 343.12C421.478 340.895 420.619 338.747 419.52 336.72C417.852 333.723 415.6 331.091 412.895 328.981C410.19 326.871 407.089 325.326 403.776 324.438C400.463 323.55 397.005 323.337 393.608 323.812C390.21 324.286 386.943 325.438 384 327.2L350.64 346.48C332.657 356.927 312.237 362.446 291.44 362.48C288.412 362.482 285.389 362.241 282.4 361.76C281.377 360.752 280.415 359.684 279.52 358.56L276.96 355.52H312.24C319.581 355.52 326.622 352.604 331.813 347.413C337.004 342.222 339.92 335.181 339.92 327.84C339.92 320.499 337.004 313.458 331.813 308.267C326.622 303.076 319.581 300.16 312.24 300.16H225.92C208.409 288.851 187.965 282.927 167.12 283.12H136C134.301 277.87 130.99 273.289 126.537 270.029C122.085 266.769 116.718 264.995 111.2 264.96H82.16C75.256 264.981 68.6383 267.722 63.7414 272.589C58.8446 277.456 56.0631 284.056 56 290.96V412C56.0211 418.932 58.784 425.573 63.6854 430.475C68.5868 435.376 75.2284 438.139 82.16 438.16ZM358.8 360L392 341.12C393.063 340.495 394.241 340.088 395.463 339.923C396.686 339.758 397.929 339.839 399.12 340.16C400.362 340.486 401.525 341.057 402.542 341.841C403.559 342.624 404.408 343.603 405.04 344.72C406.195 346.758 406.592 349.138 406.16 351.44L384 364.16C366.013 374.597 345.596 380.115 324.8 380.16C318.916 380.129 313.067 379.24 307.44 377.52C325.568 375.211 343.04 369.251 358.8 360ZM218.88 314.64C220.239 315.519 221.821 315.991 223.44 316H312.4C315.498 316 318.469 317.231 320.659 319.421C322.849 321.612 324.08 324.582 324.08 327.68C324.08 330.778 322.849 333.749 320.659 335.939C318.469 338.13 315.498 339.36 312.4 339.36H224.8C222.678 339.36 220.643 340.203 219.143 341.703C217.643 343.204 216.8 345.238 216.8 347.36C216.8 349.482 217.643 351.517 219.143 353.017C220.643 354.517 222.678 355.36 224.8 355.36H256.8L267.6 368.56C274.594 377.146 283.416 384.065 293.421 388.812C303.427 393.559 314.365 396.014 325.44 396C348.811 395.868 371.748 389.666 392 378L425.36 358.72C426.427 358.104 427.608 357.709 428.831 357.558C430.054 357.406 431.295 357.503 432.48 357.84C433.704 358.158 434.851 358.718 435.855 359.488C436.858 360.257 437.696 361.22 438.32 362.32C438.974 363.416 439.403 364.632 439.581 365.895C439.76 367.159 439.685 368.446 439.36 369.68C439.042 370.883 438.49 372.011 437.735 372.999C436.98 373.988 436.037 374.817 434.96 375.44L344 428C330.356 435.84 314.896 439.966 299.16 439.966C283.424 439.966 267.964 435.84 254.32 428C242.508 421.11 229.875 415.734 216.72 412C197.961 407.908 178.921 405.233 159.76 404H136.96V298.96H167.12C185.576 298.736 203.651 304.212 218.88 314.64ZM72 290.96C72 288.266 73.0704 285.681 74.9758 283.776C76.8812 281.871 79.4654 280.8 82.16 280.8H110.8C113.495 280.8 116.079 281.871 117.984 283.776C119.89 285.681 120.96 288.266 120.96 290.96V412C120.96 414.695 119.89 417.279 117.984 419.184C116.079 421.09 113.495 422.16 110.8 422.16H82.16C79.4654 422.16 76.8812 421.09 74.9758 419.184C73.0704 417.279 72 414.695 72 412V290.96Z" fill="url(#paint0_linear_621_42)"/>
<path d="M196.099 118.177C187.199 113.813 179.971 106.807 175.467 98.1827C172.163 92.1421 169.795 87.3096 164.496 87.3096C159.198 87.3096 156.767 91.9004 153.463 98.1827C149.008 106.78 141.848 113.782 133.017 118.177C126.784 121.318 121.797 123.614 121.797 128.809C121.797 134.003 126.535 136.299 133.017 139.5C141.926 143.825 149.161 150.814 153.65 159.434C156.954 165.475 159.322 170.307 164.683 170.307C170.044 170.307 172.35 165.777 175.654 159.434C180.143 150.814 187.378 143.825 196.286 139.5C202.52 136.299 207.507 134.003 207.507 128.809C207.507 123.614 202.582 121.318 196.099 118.177ZM164.496 153.756C158.804 143.046 149.804 134.325 138.752 128.809C149.819 123.312 158.824 114.585 164.496 103.861C170.151 114.598 179.161 123.329 190.24 128.809C179.173 134.305 170.168 143.032 164.496 153.756Z" fill="url(#paint1_linear_621_42)"/>
<path d="M448.517 87.0477C442.164 83.8805 436.993 78.8559 433.733 72.6818C431.269 67.8318 429.058 63.5957 424.004 63.5957C418.949 63.5957 416.801 67.8318 414.274 72.6818C411.059 78.8665 405.904 83.8976 399.553 87.0477C394.499 89.5034 390.203 91.5908 390.203 96.5022C390.203 101.414 394.499 103.501 399.553 105.957C405.913 109.066 411.074 114.081 414.274 120.261C416.801 125.173 419.012 129.347 424.004 129.347C429.058 129.347 431.269 125.173 433.796 120.261C436.996 114.081 442.158 109.066 448.517 105.957C453.572 103.501 457.868 101.352 457.868 96.5022C457.868 91.6522 453.572 89.5034 448.517 87.0477ZM424.004 112.035C420.121 105.621 414.619 100.275 408.019 96.5022C414.591 92.6934 420.084 87.3556 424.004 80.9698C427.958 87.3291 433.444 92.6594 439.988 96.5022C433.416 100.311 427.923 105.649 424.004 112.035Z" fill="url(#paint2_linear_621_42)"/>
<g clip-path="url(#clip2_621_42)">
<path d="M293.143 9.70117C244.335 9.70117 204.401 46.1955 204.401 90.7998C204.401 116.288 216.444 139.459 237.362 153.941C248.771 162.051 254.476 172.477 255.111 186.959C251.307 189.856 248.772 193.911 248.772 198.545C248.772 202.021 250.04 204.917 251.941 207.234C250.04 209.552 248.772 212.448 248.772 215.924C248.772 219.4 250.04 222.296 251.941 224.613C250.04 226.93 248.772 229.827 248.772 233.303C248.772 241.412 255.745 247.784 264.619 247.784H269.69L274.761 261.108C275.395 263.425 277.93 265.163 280.466 265.163H305.82C308.356 265.163 310.891 263.425 311.525 261.108L316.596 247.784H321.667C330.541 247.784 337.514 241.412 337.514 233.303C337.514 229.827 336.246 226.93 334.344 224.613C336.246 222.296 337.514 219.4 337.514 215.924C337.514 212.448 336.246 209.552 334.344 207.234C336.246 204.917 337.514 202.021 337.514 198.545C337.514 190.435 330.541 184.063 321.667 184.063H299.482V125.556C299.482 122.081 296.946 119.764 293.143 119.764C289.34 119.764 286.805 122.081 286.805 125.556V189.277C286.805 192.752 289.34 195.069 293.143 195.069H321.667C323.569 195.069 324.837 196.228 324.837 197.966C324.837 199.703 323.568 200.862 321.666 200.862C317.863 200.862 315.328 203.18 315.328 206.655C315.328 210.131 317.864 212.448 321.666 212.448C323.568 212.448 324.836 213.606 324.836 215.344C324.836 217.082 323.568 218.24 321.666 218.24H293.142C289.339 218.24 286.804 220.557 286.804 224.033C286.804 227.508 289.339 229.825 293.142 229.825H321.666C323.568 229.825 324.836 230.984 324.836 232.722C324.836 234.459 323.568 235.618 321.666 235.618H264.618C262.717 235.618 261.449 234.459 261.449 232.722C261.449 230.984 262.717 229.825 264.618 229.825C268.422 229.825 270.957 227.508 270.957 224.033C270.957 220.557 268.421 218.24 264.618 218.24C262.717 218.24 261.449 217.082 261.449 215.344C261.449 213.606 262.717 212.448 264.618 212.448H299.481C303.284 212.448 305.82 210.13 305.82 206.655C305.82 203.179 303.284 200.862 299.481 200.862H264.618C262.717 200.862 261.449 199.704 261.449 197.966C261.449 196.228 262.717 195.07 264.618 195.07C268.422 195.07 270.957 192.752 270.957 189.277C270.957 186.96 269.689 185.223 267.788 184.064C266.52 166.685 258.913 153.362 244.968 144.093C227.22 131.929 217.078 112.233 217.078 90.7998C217.078 52.5676 251.307 21.2868 293.142 21.2868C334.977 21.2868 369.206 52.5676 369.206 90.7998C369.206 112.233 359.064 132.508 341.316 144.093C331.174 151.045 324.835 159.734 321.032 170.161C319.765 173.057 321.666 176.533 325.469 177.113C328.638 178.271 332.442 176.533 333.076 173.057C335.612 164.947 340.682 157.996 348.923 152.783C369.84 139.459 381.884 115.709 381.884 90.8003C381.884 46.1955 341.951 9.70117 293.143 9.70117ZM303.284 247.205L301.383 252.997H284.902L283 247.205H303.284Z" fill="url(#paint3_linear_621_42)"/>
<path d="M312.159 73.4214C298.214 73.4214 286.805 83.8481 286.805 96.5922C286.805 102.964 281.1 108.178 274.127 108.178C267.154 108.178 261.449 102.964 261.449 96.5922C261.449 90.2202 267.154 85.0065 274.127 85.0065C277.93 85.0065 280.466 82.6892 280.466 79.214C280.466 75.7387 277.93 73.4214 274.127 73.4214C260.182 73.4214 248.772 83.8481 248.772 96.5922C248.772 109.336 260.182 119.763 274.127 119.763C288.072 119.763 299.482 109.336 299.482 96.5922C299.482 90.2202 305.187 85.0065 312.159 85.0065C319.132 85.0065 324.837 90.2202 324.837 96.5922C324.837 102.964 319.132 108.178 312.159 108.178C308.356 108.178 305.821 110.495 305.821 113.97C305.821 117.446 308.356 119.763 312.159 119.763C326.104 119.763 337.514 109.336 337.514 96.5922C337.514 83.8481 326.104 73.4214 312.159 73.4214Z" fill="url(#paint4_linear_621_42)"/>
</g>
</g>
</g>
<defs>
<linearGradient id="paint0_linear_621_42" x1="256.238" y1="264.96" x2="256.238" y2="455.925" gradientUnits="userSpaceOnUse">
<stop stop-color="#37B9F7"/>
<stop offset="1" stop-color="#2871ED"/>
</linearGradient>
<linearGradient id="paint1_linear_621_42" x1="164.652" y1="87.3096" x2="164.652" y2="170.307" gradientUnits="userSpaceOnUse">
<stop stop-color="#37B9F7"/>
<stop offset="1" stop-color="#2871ED"/>
</linearGradient>
<linearGradient id="paint2_linear_621_42" x1="424.035" y1="63.5957" x2="424.035" y2="129.347" gradientUnits="userSpaceOnUse">
<stop stop-color="#37B9F7"/>
<stop offset="1" stop-color="#2871ED"/>
</linearGradient>
<linearGradient id="paint3_linear_621_42" x1="293.142" y1="9.70117" x2="293.142" y2="265.163" gradientUnits="userSpaceOnUse">
<stop stop-color="#36B5F6"/>
<stop offset="1" stop-color="#2A7CEF"/>
</linearGradient>
<linearGradient id="paint4_linear_621_42" x1="293.143" y1="73.4214" x2="293.143" y2="119.763" gradientUnits="userSpaceOnUse">
<stop stop-color="#36B5F6"/>
<stop offset="1" stop-color="#2A7CEF"/>
</linearGradient>
<clipPath id="clip0_621_42">
<rect width="512" height="512" fill="white"/>
</clipPath>
<clipPath id="clip1_621_42">
<rect width="512" height="512" fill="white"/>
</clipPath>
<clipPath id="clip2_621_42">
<rect width="363.137" height="255.461" fill="white" transform="translate(153.375 9.70117)"/>
</clipPath>
</defs>
</svg>
