<svg width="512" height="512" viewBox="0 0 512 512" fill="none" xmlns="http://www.w3.org/2000/svg">
<path d="M151 58.1875C126.19 58.1875 106 77.1577 106 100.469C106 123.78 126.19 142.75 151 142.75H166.015V58.1875H151ZM151 128.656C134.425 128.656 121 116.042 121 100.469C121 84.8952 134.425 72.2812 151 72.2812V128.656ZM181 368.25V410.531C181 418.311 187.72 424.625 196 424.625H316C324.28 424.625 331 418.311 331 410.531V368.25C331 360.47 324.28 354.156 316 354.156H196C187.72 354.156 181 360.47 181 368.25ZM316 410.531H196V368.25H316V410.531ZM271 269.594C320.665 269.594 360.94 231.794 361 185.13L361.015 170.938C404.875 170.938 439.93 135.576 435.655 93.5487C431.935 56.905 396.955 30 357.79 30H154.225C115.06 30 80.0649 56.905 76.3449 93.5487C72.0849 135.576 107.14 170.938 151 170.938L151.015 185.116C151.075 231.78 191.35 269.58 241.015 269.58H248.515H248.5V297.753H226C217.72 297.753 211 304.067 211 311.847V325.969H196C171.145 325.969 151 344.897 151 368.25V438.719H136C127.72 438.719 121 445.033 121 452.812V466.906C121 474.686 127.72 481 136 481H376C384.28 481 391 474.686 391 466.906V452.812C391 445.033 384.28 438.719 376 438.719H361V368.25C361 344.897 340.855 325.969 316 325.969H301V311.861C301 304.081 294.28 297.767 286 297.767H263.5V269.58L271 269.594ZM376 452.812V466.906H136V452.812H376ZM316 340.062C332.575 340.062 346 352.676 346 368.25V438.719H166V368.25C166 352.676 179.425 340.062 196 340.062H316ZM286 311.861V325.955H226V311.861H286ZM241.015 255.5C199.66 255.5 166.015 223.888 166.015 185.031V156.844H150.235C117.49 156.449 90.9999 131.32 90.9999 100.469C90.9999 69.3779 117.91 44.0938 151 44.0938H361.015C394.105 44.0938 421.015 69.3779 421.015 100.469C421.015 131.32 394.525 156.449 361.78 156.844H346V185.031C346 223.888 312.355 255.5 271 255.5H241.015ZM406.015 100.469C406.015 77.1577 385.825 58.1875 361.015 58.1875H346V142.75H361.015C385.825 142.75 406.015 123.78 406.015 100.469ZM361.015 72.2812C377.59 72.2812 391.015 84.8952 391.015 100.469C391.015 116.042 377.59 128.656 361.015 128.656V72.2812Z" fill="url(#paint0_linear_621_31)"/>
<defs>
<linearGradient id="paint0_linear_621_31" x1="256.001" y1="30" x2="256.001" y2="481" gradientUnits="userSpaceOnUse">
<stop stop-color="#37BAF7"/>
<stop offset="1" stop-color="#2870ED"/>
</linearGradient>
</defs>
</svg>
