<svg width="122" height="96" viewBox="0 0 122 96" fill="none" xmlns="http://www.w3.org/2000/svg">
<path d="M4.56577 8.40369C19.5893 0.242655 25.8584 4.61987 23.3731 21.5353C20.8878 38.4508 27.157 42.828 42.1805 34.667C57.2041 26.506 63.4732 30.8832 60.9879 47.7986C58.5026 64.7141 64.7717 69.0913 79.7952 60.9303C94.8188 52.7692 101.088 57.1465 98.6026 74.0619C96.1173 90.9774 102.386 95.3546 117.41 87.1936" stroke="#36AFEF" stroke-width="8" stroke-linecap="round"/>
<path d="M4.56577 8.40369C19.5893 0.242655 25.8584 4.61987 23.3731 21.5353C20.8878 38.4508 27.157 42.828 42.1805 34.667C57.2041 26.506 63.4732 30.8832 60.9879 47.7986C58.5026 64.7141 64.7717 69.0913 79.7952 60.9303C94.8188 52.7692 101.088 57.1465 98.6026 74.0619C96.1173 90.9774 102.386 95.3546 117.41 87.1936" stroke="#36AFEF" stroke-width="8" stroke-linecap="round"/>
</svg>
