<svg width="162" height="29" viewBox="0 0 162 29" fill="none" xmlns="http://www.w3.org/2000/svg">
<rect y="2" width="53" height="27" fill="white"/>
<path d="M5.095 25.898V7.04H11.626V8.888H7.279V24.05H11.626V25.898H5.095ZM15.2718 23V8.342H20.8368C22.2648 8.342 23.3568 8.748 24.1128 9.56C24.8688 10.372 25.2468 11.478 25.2468 12.878C25.2468 14.278 24.8688 15.384 24.1128 16.196C23.3568 17.008 22.2648 17.414 20.8368 17.414H18.0228V23H15.2718ZM18.0228 15.167H20.2698C21.0118 15.167 21.5438 15.02 21.8658 14.726C22.1878 14.418 22.3488 13.935 22.3488 13.277V12.479C22.3488 11.821 22.1878 11.345 21.8658 11.051C21.5438 10.743 21.0118 10.589 20.2698 10.589H18.0228V15.167ZM30.6146 23H27.8636V8.342H33.4286C34.8566 8.342 35.9486 8.748 36.7046 9.56C37.4606 10.372 37.8386 11.478 37.8386 12.878C37.8386 13.956 37.5866 14.866 37.0826 15.608C36.5926 16.336 35.8856 16.798 34.9616 16.994L38.0906 23H35.0666L32.2736 17.309H30.6146V23ZM32.8616 15.167C33.6036 15.167 34.1356 15.02 34.4576 14.726C34.7796 14.418 34.9406 13.935 34.9406 13.277V12.479C34.9406 11.821 34.7796 11.345 34.4576 11.051C34.1356 10.743 33.6036 10.589 32.8616 10.589H30.6146V15.167H32.8616ZM47.2804 7.04V25.898H40.7494V24.05H45.0964V8.888H40.7494V7.04H47.2804Z" fill="black"/>
<path d="M57.98 23V7.644H63.568C64.9907 7.644 66.076 8.03267 66.824 8.81C67.572 9.58733 67.946 10.6727 67.946 12.066C67.946 13.4593 67.572 14.5447 66.824 15.322C66.076 16.0993 64.9907 16.488 63.568 16.488H59.828V23H57.98ZM59.828 14.882H63.524C64.3013 14.882 64.9027 14.6913 65.328 14.31C65.768 13.914 65.988 13.3567 65.988 12.638V11.494C65.988 10.7753 65.768 10.2253 65.328 9.844C64.9027 9.448 64.3013 9.25 63.524 9.25H59.828V14.882ZM80.0814 23C79.3921 23 78.9007 22.824 78.6074 22.472C78.3141 22.12 78.1307 21.68 78.0574 21.152H77.9474C77.6981 21.812 77.2947 22.3327 76.7374 22.714C76.1947 23.0807 75.4614 23.264 74.5374 23.264C73.3494 23.264 72.4034 22.956 71.6994 22.34C70.9954 21.724 70.6434 20.8807 70.6434 19.81C70.6434 18.754 71.0247 17.94 71.7874 17.368C72.5647 16.796 73.8114 16.51 75.5274 16.51H77.9474V15.388C77.9474 14.552 77.7127 13.9287 77.2434 13.518C76.7741 13.0927 76.1067 12.88 75.2414 12.88C74.4787 12.88 73.8554 13.034 73.3714 13.342C72.8874 13.6353 72.4987 14.0387 72.2054 14.552L71.0174 13.672C71.1641 13.3787 71.3621 13.0927 71.6114 12.814C71.8607 12.5353 72.1687 12.2933 72.5354 12.088C72.9021 11.868 73.3201 11.6993 73.7894 11.582C74.2587 11.45 74.7794 11.384 75.3514 11.384C76.6861 11.384 77.7421 11.7213 78.5194 12.396C79.3114 13.0707 79.7074 14.0093 79.7074 15.212V21.46H81.2914V23H80.0814ZM74.8454 21.79C75.3001 21.79 75.7107 21.7387 76.0774 21.636C76.4587 21.5187 76.7887 21.372 77.0674 21.196C77.3461 21.0053 77.5587 20.7853 77.7054 20.536C77.8667 20.272 77.9474 19.9933 77.9474 19.7V17.83H75.5274C74.4714 17.83 73.7014 17.9767 73.2174 18.27C72.7334 18.5633 72.4914 18.9887 72.4914 19.546V20.008C72.4914 20.5947 72.6967 21.042 73.1074 21.35C73.5327 21.6433 74.1121 21.79 74.8454 21.79ZM84.0768 21.504H87.3988V13.144H84.0768V11.648H89.1588V14.508H89.2688C89.5035 13.6133 89.9435 12.9167 90.5888 12.418C91.2488 11.9047 92.0848 11.648 93.0968 11.648H94.6808V13.408H92.5468C91.5348 13.408 90.7135 13.7013 90.0828 14.288C89.4668 14.8747 89.1588 15.6447 89.1588 16.598V21.504H93.5588V23H84.0768V21.504ZM106.464 23C105.775 23 105.284 22.824 104.99 22.472C104.697 22.12 104.514 21.68 104.44 21.152H104.33C104.081 21.812 103.678 22.3327 103.12 22.714C102.578 23.0807 101.844 23.264 100.92 23.264C99.7322 23.264 98.7862 22.956 98.0822 22.34C97.3782 21.724 97.0262 20.8807 97.0262 19.81C97.0262 18.754 97.4076 17.94 98.1702 17.368C98.9476 16.796 100.194 16.51 101.91 16.51H104.33V15.388C104.33 14.552 104.096 13.9287 103.626 13.518C103.157 13.0927 102.49 12.88 101.624 12.88C100.862 12.88 100.238 13.034 99.7542 13.342C99.2702 13.6353 98.8816 14.0387 98.5882 14.552L97.4002 13.672C97.5469 13.3787 97.7449 13.0927 97.9942 12.814C98.2436 12.5353 98.5516 12.2933 98.9182 12.088C99.2849 11.868 99.7029 11.6993 100.172 11.582C100.642 11.45 101.162 11.384 101.734 11.384C103.069 11.384 104.125 11.7213 104.902 12.396C105.694 13.0707 106.09 14.0093 106.09 15.212V21.46H107.674V23H106.464ZM101.228 21.79C101.683 21.79 102.094 21.7387 102.46 21.636C102.842 21.5187 103.172 21.372 103.45 21.196C103.729 21.0053 103.942 20.7853 104.088 20.536C104.25 20.272 104.33 19.9933 104.33 19.7V17.83H101.91C100.854 17.83 100.084 17.9767 99.6002 18.27C99.1162 18.5633 98.8742 18.9887 98.8742 19.546V20.008C98.8742 20.5947 99.0796 21.042 99.4902 21.35C99.9156 21.6433 100.495 21.79 101.228 21.79ZM118.116 21.152H118.028C117.294 22.56 116.128 23.264 114.53 23.264C113.136 23.264 112.044 22.7433 111.252 21.702C110.474 20.6607 110.086 19.2013 110.086 17.324C110.086 15.4467 110.474 13.9873 111.252 12.946C112.044 11.9047 113.136 11.384 114.53 11.384C116.128 11.384 117.294 12.088 118.028 13.496H118.116V6.72H119.876V23H118.116V21.152ZM115.212 21.702C115.608 21.702 115.982 21.6507 116.334 21.548C116.686 21.4453 116.994 21.2987 117.258 21.108C117.522 20.9027 117.727 20.6607 117.874 20.382C118.035 20.0887 118.116 19.7513 118.116 19.37V15.278C118.116 14.8967 118.035 14.5667 117.874 14.288C117.727 13.9947 117.522 13.7527 117.258 13.562C116.994 13.3567 116.686 13.2027 116.334 13.1C115.982 12.9973 115.608 12.946 115.212 12.946C114.185 12.946 113.386 13.2613 112.814 13.892C112.256 14.508 111.978 15.3293 111.978 16.356V18.292C111.978 19.3187 112.256 20.1473 112.814 20.778C113.386 21.394 114.185 21.702 115.212 21.702ZM129.261 9.14C128.748 9.14 128.388 9.03733 128.183 8.832C127.978 8.612 127.875 8.34067 127.875 8.018V7.666C127.875 7.34333 127.978 7.07933 128.183 6.874C128.388 6.654 128.748 6.544 129.261 6.544C129.774 6.544 130.134 6.654 130.339 6.874C130.544 7.07933 130.647 7.34333 130.647 7.666V8.018C130.647 8.34067 130.544 8.612 130.339 8.832C130.134 9.03733 129.774 9.14 129.261 9.14ZM124.289 21.504H128.381V13.144H124.289V11.648H130.141V21.504H133.969V23H124.289V21.504ZM147.49 24.298C147.49 25.442 147.014 26.2853 146.06 26.828C145.107 27.3853 143.677 27.664 141.77 27.664C139.937 27.664 138.617 27.422 137.81 26.938C137.018 26.454 136.622 25.7573 136.622 24.848C136.622 24.232 136.784 23.7553 137.106 23.418C137.429 23.0807 137.884 22.8313 138.47 22.67V22.406C138.148 22.2447 137.898 22.0393 137.722 21.79C137.546 21.5407 137.458 21.2253 137.458 20.844C137.458 20.2573 137.649 19.8173 138.03 19.524C138.426 19.2307 138.918 19.0107 139.504 18.864V18.776C138.8 18.468 138.25 18.0133 137.854 17.412C137.473 16.8107 137.282 16.1067 137.282 15.3C137.282 14.728 137.385 14.2 137.59 13.716C137.796 13.232 138.089 12.8213 138.47 12.484C138.866 12.132 139.336 11.8607 139.878 11.67C140.421 11.4793 141.022 11.384 141.682 11.384C142.533 11.384 143.281 11.538 143.926 11.846V11.648C143.926 11.208 144.029 10.8413 144.234 10.548C144.44 10.2547 144.792 10.108 145.29 10.108H147.38V11.648H144.828V12.418C145.239 12.77 145.554 13.188 145.774 13.672C145.994 14.156 146.104 14.6987 146.104 15.3C146.104 15.872 145.994 16.4 145.774 16.884C145.569 17.368 145.276 17.786 144.894 18.138C144.513 18.4753 144.044 18.7393 143.486 18.93C142.944 19.1207 142.342 19.216 141.682 19.216C141.492 19.216 141.308 19.2087 141.132 19.194C140.956 19.1793 140.78 19.1573 140.604 19.128C140.428 19.1573 140.245 19.2087 140.054 19.282C139.864 19.3407 139.688 19.4287 139.526 19.546C139.365 19.6487 139.233 19.7733 139.13 19.92C139.028 20.0667 138.976 20.2353 138.976 20.426C138.976 20.7633 139.145 20.9907 139.482 21.108C139.82 21.2107 140.26 21.262 140.802 21.262H143.31C144.777 21.262 145.84 21.5407 146.5 22.098C147.16 22.6407 147.49 23.374 147.49 24.298ZM145.84 24.386C145.84 23.9313 145.657 23.5647 145.29 23.286C144.924 23.022 144.286 22.89 143.376 22.89H139.438C138.676 23.198 138.294 23.7113 138.294 24.43C138.294 24.9287 138.492 25.354 138.888 25.706C139.284 26.0727 139.944 26.256 140.868 26.256H142.584C143.611 26.256 144.41 26.0947 144.982 25.772C145.554 25.464 145.84 25.002 145.84 24.386ZM141.682 17.852C142.562 17.852 143.208 17.6467 143.618 17.236C144.044 16.8253 144.256 16.2827 144.256 15.608V14.97C144.256 14.2953 144.044 13.76 143.618 13.364C143.208 12.9533 142.562 12.748 141.682 12.748C140.802 12.748 140.157 12.9533 139.746 13.364C139.336 13.76 139.13 14.2953 139.13 14.97V15.608C139.13 16.2827 139.336 16.8253 139.746 17.236C140.157 17.6467 140.802 17.852 141.682 17.852ZM149.528 23V11.648H151.156V12.968H151.244C151.42 12.528 151.669 12.154 151.992 11.846C152.315 11.538 152.791 11.384 153.422 11.384C154.082 11.384 154.573 11.5527 154.896 11.89C155.219 12.2127 155.417 12.638 155.49 13.166H155.556C155.761 12.6527 156.055 12.2273 156.436 11.89C156.817 11.5527 157.345 11.384 158.02 11.384C158.944 11.384 159.56 11.7067 159.868 12.352C160.191 12.9973 160.352 13.9213 160.352 15.124V23H158.724V15.41C158.724 14.442 158.621 13.7747 158.416 13.408C158.225 13.0267 157.866 12.836 157.338 12.836C156.869 12.836 156.487 12.99 156.194 13.298C155.901 13.5913 155.754 14.046 155.754 14.662V23H154.126V15.41C154.126 14.442 154.023 13.7747 153.818 13.408C153.627 13.0267 153.275 12.836 152.762 12.836C152.293 12.836 151.904 12.99 151.596 13.298C151.303 13.5913 151.156 14.046 151.156 14.662V23H149.528Z" fill="white"/>
<path d="M56 26.74H69.2V28.06H56V26.74ZM69.1914 26.74H82.3914V28.06H69.1914V26.74ZM82.3828 26.74H95.5828V28.06H82.3828V26.74ZM95.5742 26.74H108.774V28.06H95.5742V26.74ZM108.766 26.74H121.966V28.06H108.766V26.74ZM121.957 26.74H135.157V28.06H121.957V26.74ZM135.148 26.74H148.348V28.06H135.148V26.74ZM148.34 26.74H161.54V28.06H148.34V26.74Z" fill="white"/>
</svg>
