<svg width="268" height="29" viewBox="0 0 268 29" fill="none" xmlns="http://www.w3.org/2000/svg">
<rect y="2" width="53" height="27" fill="white"/>
<path d="M5.095 25.898V7.04H11.626V8.888H7.279V24.05H11.626V25.898H5.095ZM15.2718 23V8.342H20.8368C22.2648 8.342 23.3568 8.748 24.1128 9.56C24.8688 10.372 25.2468 11.478 25.2468 12.878C25.2468 14.278 24.8688 15.384 24.1128 16.196C23.3568 17.008 22.2648 17.414 20.8368 17.414H18.0228V23H15.2718ZM18.0228 15.167H20.2698C21.0118 15.167 21.5438 15.02 21.8658 14.726C22.1878 14.418 22.3488 13.935 22.3488 13.277V12.479C22.3488 11.821 22.1878 11.345 21.8658 11.051C21.5438 10.743 21.0118 10.589 20.2698 10.589H18.0228V15.167ZM30.6146 23H27.8636V8.342H33.4286C34.8566 8.342 35.9486 8.748 36.7046 9.56C37.4606 10.372 37.8386 11.478 37.8386 12.878C37.8386 13.956 37.5866 14.866 37.0826 15.608C36.5926 16.336 35.8856 16.798 34.9616 16.994L38.0906 23H35.0666L32.2736 17.309H30.6146V23ZM32.8616 15.167C33.6036 15.167 34.1356 15.02 34.4576 14.726C34.7796 14.418 34.9406 13.935 34.9406 13.277V12.479C34.9406 11.821 34.7796 11.345 34.4576 11.051C34.1356 10.743 33.6036 10.589 32.8616 10.589H30.6146V15.167H32.8616ZM47.2804 7.04V25.898H40.7494V24.05H45.0964V8.888H40.7494V7.04H47.2804Z" fill="black"/>
<path d="M66.802 26.608H64.228C63.3627 26.608 62.7247 26.366 62.314 25.882C61.918 25.398 61.72 24.7747 61.72 24.012V23.198C60.9427 23.0953 60.268 22.846 59.696 22.45C59.1387 22.0393 58.6767 21.504 58.31 20.844C57.9433 20.1693 57.672 19.37 57.496 18.446C57.32 17.5073 57.232 16.466 57.232 15.322C57.232 14.0753 57.3347 12.9607 57.54 11.978C57.7453 10.9807 58.068 10.1447 58.508 9.47C58.948 8.79533 59.5053 8.282 60.18 7.93C60.8547 7.56333 61.6613 7.38 62.6 7.38C63.5387 7.38 64.3453 7.56333 65.02 7.93C65.6947 8.282 66.252 8.79533 66.692 9.47C67.132 10.1447 67.4547 10.9807 67.66 11.978C67.8653 12.9607 67.968 14.0753 67.968 15.322C67.968 17.6247 67.6087 19.4653 66.89 20.844C66.1713 22.208 65.0347 22.9927 63.48 23.198V25.112H66.802V26.608ZM62.6 21.658C63.216 21.658 63.7367 21.5407 64.162 21.306C64.5873 21.0567 64.9393 20.712 65.218 20.272C65.4967 19.832 65.6947 19.304 65.812 18.688C65.944 18.0573 66.01 17.3533 66.01 16.576V14.068C66.01 13.3053 65.944 12.6087 65.812 11.978C65.6947 11.3473 65.4967 10.812 65.218 10.372C64.9393 9.932 64.5873 9.59467 64.162 9.36C63.7367 9.11067 63.216 8.986 62.6 8.986C61.984 8.986 61.4633 9.11067 61.038 9.36C60.6127 9.59467 60.2607 9.932 59.982 10.372C59.7033 10.812 59.498 11.3473 59.366 11.978C59.2487 12.6087 59.19 13.3053 59.19 14.068V16.576C59.19 17.3533 59.2487 18.0573 59.366 18.688C59.498 19.304 59.7033 19.832 59.982 20.272C60.2607 20.712 60.6127 21.0567 61.038 21.306C61.4633 21.5407 61.984 21.658 62.6 21.658ZM78.4754 21.152H78.3874C78.2701 21.4307 78.1234 21.702 77.9474 21.966C77.7714 22.2153 77.5514 22.4353 77.2874 22.626C77.0381 22.8167 76.7374 22.9707 76.3854 23.088C76.0334 23.2053 75.6227 23.264 75.1534 23.264C73.9654 23.264 73.0121 22.89 72.2934 22.142C71.5747 21.3793 71.2154 20.3087 71.2154 18.93V11.648H72.9754V18.622C72.9754 19.6633 73.2027 20.4407 73.6574 20.954C74.1121 21.4527 74.7794 21.702 75.6594 21.702C76.0114 21.702 76.3561 21.658 76.6934 21.57C77.0307 21.482 77.3314 21.35 77.5954 21.174C77.8594 20.998 78.0721 20.778 78.2334 20.514C78.3947 20.2353 78.4754 19.9053 78.4754 19.524V11.648H80.2354V23H78.4754V21.152ZM93.2728 23C92.5835 23 92.0921 22.824 91.7988 22.472C91.5055 22.12 91.3221 21.68 91.2488 21.152H91.1388C90.8895 21.812 90.4861 22.3327 89.9288 22.714C89.3861 23.0807 88.6528 23.264 87.7288 23.264C86.5408 23.264 85.5948 22.956 84.8908 22.34C84.1868 21.724 83.8348 20.8807 83.8348 19.81C83.8348 18.754 84.2161 17.94 84.9788 17.368C85.7561 16.796 87.0028 16.51 88.7188 16.51H91.1388V15.388C91.1388 14.552 90.9041 13.9287 90.4348 13.518C89.9655 13.0927 89.2981 12.88 88.4328 12.88C87.6701 12.88 87.0468 13.034 86.5628 13.342C86.0788 13.6353 85.6901 14.0387 85.3968 14.552L84.2088 13.672C84.3555 13.3787 84.5535 13.0927 84.8028 12.814C85.0521 12.5353 85.3601 12.2933 85.7268 12.088C86.0935 11.868 86.5115 11.6993 86.9808 11.582C87.4501 11.45 87.9708 11.384 88.5428 11.384C89.8775 11.384 90.9335 11.7213 91.7108 12.396C92.5028 13.0707 92.8988 14.0093 92.8988 15.212V21.46H94.4828V23H93.2728ZM88.0368 21.79C88.4915 21.79 88.9021 21.7387 89.2688 21.636C89.6501 21.5187 89.9801 21.372 90.2588 21.196C90.5375 21.0053 90.7501 20.7853 90.8968 20.536C91.0581 20.272 91.1388 19.9933 91.1388 19.7V17.83H88.7188C87.6628 17.83 86.8928 17.9767 86.4088 18.27C85.9248 18.5633 85.6828 18.9887 85.6828 19.546V20.008C85.6828 20.5947 85.8881 21.042 86.2988 21.35C86.7241 21.6433 87.3035 21.79 88.0368 21.79ZM97.7302 23V11.648H99.4902V13.496H99.5782C99.6956 13.2173 99.8422 12.9533 100.018 12.704C100.194 12.44 100.407 12.2127 100.656 12.022C100.92 11.8313 101.228 11.6773 101.58 11.56C101.932 11.4427 102.343 11.384 102.812 11.384C104 11.384 104.954 11.7653 105.672 12.528C106.391 13.276 106.75 14.3393 106.75 15.718V23H104.99V16.026C104.99 14.9847 104.763 14.2147 104.308 13.716C103.854 13.2027 103.186 12.946 102.306 12.946C101.954 12.946 101.61 12.99 101.272 13.078C100.935 13.166 100.634 13.298 100.37 13.474C100.106 13.65 99.8936 13.8773 99.7322 14.156C99.5709 14.4347 99.4902 14.7573 99.4902 15.124V23H97.7302ZM115.916 23C115.05 23 114.412 22.758 114.002 22.274C113.606 21.79 113.408 21.1667 113.408 20.404V13.144H109.624V11.648H112.44C112.821 11.648 113.085 11.5747 113.232 11.428C113.393 11.2667 113.474 10.9953 113.474 10.614V7.644H115.168V11.648H120.338V13.144H115.168V21.504H120.338V23H115.916ZM131.241 21.152H131.153C131.036 21.4307 130.889 21.702 130.713 21.966C130.537 22.2153 130.317 22.4353 130.053 22.626C129.804 22.8167 129.503 22.9707 129.151 23.088C128.799 23.2053 128.388 23.264 127.919 23.264C126.731 23.264 125.778 22.89 125.059 22.142C124.34 21.3793 123.981 20.3087 123.981 18.93V11.648H125.741V18.622C125.741 19.6633 125.968 20.4407 126.423 20.954C126.878 21.4527 127.545 21.702 128.425 21.702C128.777 21.702 129.122 21.658 129.459 21.57C129.796 21.482 130.097 21.35 130.361 21.174C130.625 20.998 130.838 20.778 130.999 20.514C131.16 20.2353 131.241 19.9053 131.241 19.524V11.648H133.001V23H131.241V21.152ZM136.336 23V11.648H137.964V12.968H138.052C138.228 12.528 138.478 12.154 138.8 11.846C139.123 11.538 139.6 11.384 140.23 11.384C140.89 11.384 141.382 11.5527 141.704 11.89C142.027 12.2127 142.225 12.638 142.298 13.166H142.364C142.57 12.6527 142.863 12.2273 143.244 11.89C143.626 11.5527 144.154 11.384 144.828 11.384C145.752 11.384 146.368 11.7067 146.676 12.352C146.999 12.9973 147.16 13.9213 147.16 15.124V23H145.532V15.41C145.532 14.442 145.43 13.7747 145.224 13.408C145.034 13.0267 144.674 12.836 144.146 12.836C143.677 12.836 143.296 12.99 143.002 13.298C142.709 13.5913 142.562 14.046 142.562 14.662V23H140.934V15.41C140.934 14.442 140.832 13.7747 140.626 13.408C140.436 13.0267 140.084 12.836 139.57 12.836C139.101 12.836 138.712 12.99 138.404 13.298C138.111 13.5913 137.964 14.046 137.964 14.662V23H136.336ZM163.511 23V7.644H169.099C170.522 7.644 171.607 8.03267 172.355 8.81C173.103 9.58733 173.477 10.6727 173.477 12.066C173.477 13.4593 173.103 14.5447 172.355 15.322C171.607 16.0993 170.522 16.488 169.099 16.488H165.359V23H163.511ZM165.359 14.882H169.055C169.833 14.882 170.434 14.6913 170.859 14.31C171.299 13.914 171.519 13.3567 171.519 12.638V11.494C171.519 10.7753 171.299 10.2253 170.859 9.844C170.434 9.448 169.833 9.25 169.055 9.25H165.359V14.882ZM185.613 23C184.923 23 184.432 22.824 184.139 22.472C183.845 22.12 183.662 21.68 183.589 21.152H183.479C183.229 21.812 182.826 22.3327 182.269 22.714C181.726 23.0807 180.993 23.264 180.069 23.264C178.881 23.264 177.935 22.956 177.231 22.34C176.527 21.724 176.175 20.8807 176.175 19.81C176.175 18.754 176.556 17.94 177.319 17.368C178.096 16.796 179.343 16.51 181.059 16.51H183.479V15.388C183.479 14.552 183.244 13.9287 182.775 13.518C182.305 13.0927 181.638 12.88 180.773 12.88C180.01 12.88 179.387 13.034 178.903 13.342C178.419 13.6353 178.03 14.0387 177.737 14.552L176.549 13.672C176.695 13.3787 176.893 13.0927 177.143 12.814C177.392 12.5353 177.7 12.2933 178.067 12.088C178.433 11.868 178.851 11.6993 179.321 11.582C179.79 11.45 180.311 11.384 180.883 11.384C182.217 11.384 183.273 11.7213 184.051 12.396C184.843 13.0707 185.239 14.0093 185.239 15.212V21.46H186.823V23H185.613ZM180.377 21.79C180.831 21.79 181.242 21.7387 181.609 21.636C181.99 21.5187 182.32 21.372 182.599 21.196C182.877 21.0053 183.09 20.7853 183.237 20.536C183.398 20.272 183.479 19.9933 183.479 19.7V17.83H181.059C180.003 17.83 179.233 17.9767 178.749 18.27C178.265 18.5633 178.023 18.9887 178.023 19.546V20.008C178.023 20.5947 178.228 21.042 178.639 21.35C179.064 21.6433 179.643 21.79 180.377 21.79ZM189.608 21.504H192.93V13.144H189.608V11.648H194.69V14.508H194.8C195.035 13.6133 195.475 12.9167 196.12 12.418C196.78 11.9047 197.616 11.648 198.628 11.648H200.212V13.408H198.078C197.066 13.408 196.245 13.7013 195.614 14.288C194.998 14.8747 194.69 15.6447 194.69 16.598V21.504H199.09V23H189.608V21.504ZM211.995 23C211.306 23 210.815 22.824 210.521 22.472C210.228 22.12 210.045 21.68 209.971 21.152H209.861C209.612 21.812 209.209 22.3327 208.651 22.714C208.109 23.0807 207.375 23.264 206.451 23.264C205.263 23.264 204.317 22.956 203.613 22.34C202.909 21.724 202.557 20.8807 202.557 19.81C202.557 18.754 202.939 17.94 203.701 17.368C204.479 16.796 205.725 16.51 207.441 16.51H209.861V15.388C209.861 14.552 209.627 13.9287 209.157 13.518C208.688 13.0927 208.021 12.88 207.155 12.88C206.393 12.88 205.769 13.034 205.285 13.342C204.801 13.6353 204.413 14.0387 204.119 14.552L202.931 13.672C203.078 13.3787 203.276 13.0927 203.525 12.814C203.775 12.5353 204.083 12.2933 204.449 12.088C204.816 11.868 205.234 11.6993 205.703 11.582C206.173 11.45 206.693 11.384 207.265 11.384C208.6 11.384 209.656 11.7213 210.433 12.396C211.225 13.0707 211.621 14.0093 211.621 15.212V21.46H213.205V23H211.995ZM206.759 21.79C207.214 21.79 207.625 21.7387 207.991 21.636C208.373 21.5187 208.703 21.372 208.981 21.196C209.26 21.0053 209.473 20.7853 209.619 20.536C209.781 20.272 209.861 19.9933 209.861 19.7V17.83H207.441C206.385 17.83 205.615 17.9767 205.131 18.27C204.647 18.5633 204.405 18.9887 204.405 19.546V20.008C204.405 20.5947 204.611 21.042 205.021 21.35C205.447 21.6433 206.026 21.79 206.759 21.79ZM223.647 21.152H223.559C222.826 22.56 221.66 23.264 220.061 23.264C218.668 23.264 217.575 22.7433 216.783 21.702C216.006 20.6607 215.617 19.2013 215.617 17.324C215.617 15.4467 216.006 13.9873 216.783 12.946C217.575 11.9047 218.668 11.384 220.061 11.384C221.66 11.384 222.826 12.088 223.559 13.496H223.647V6.72H225.407V23H223.647V21.152ZM220.743 21.702C221.139 21.702 221.513 21.6507 221.865 21.548C222.217 21.4453 222.525 21.2987 222.789 21.108C223.053 20.9027 223.258 20.6607 223.405 20.382C223.566 20.0887 223.647 19.7513 223.647 19.37V15.278C223.647 14.8967 223.566 14.5667 223.405 14.288C223.258 13.9947 223.053 13.7527 222.789 13.562C222.525 13.3567 222.217 13.2027 221.865 13.1C221.513 12.9973 221.139 12.946 220.743 12.946C219.716 12.946 218.917 13.2613 218.345 13.892C217.788 14.508 217.509 15.3293 217.509 16.356V18.292C217.509 19.3187 217.788 20.1473 218.345 20.778C218.917 21.394 219.716 21.702 220.743 21.702ZM234.792 9.14C234.279 9.14 233.92 9.03733 233.714 8.832C233.509 8.612 233.406 8.34067 233.406 8.018V7.666C233.406 7.34333 233.509 7.07933 233.714 6.874C233.92 6.654 234.279 6.544 234.792 6.544C235.306 6.544 235.665 6.654 235.87 6.874C236.076 7.07933 236.178 7.34333 236.178 7.666V8.018C236.178 8.34067 236.076 8.612 235.87 8.832C235.665 9.03733 235.306 9.14 234.792 9.14ZM229.82 21.504H233.912V13.144H229.82V11.648H235.672V21.504H239.5V23H229.82V21.504ZM253.022 24.298C253.022 25.442 252.545 26.2853 251.592 26.828C250.638 27.3853 249.208 27.664 247.302 27.664C245.468 27.664 244.148 27.422 243.342 26.938C242.55 26.454 242.154 25.7573 242.154 24.848C242.154 24.232 242.315 23.7553 242.638 23.418C242.96 23.0807 243.415 22.8313 244.002 22.67V22.406C243.679 22.2447 243.43 22.0393 243.254 21.79C243.078 21.5407 242.99 21.2253 242.99 20.844C242.99 20.2573 243.18 19.8173 243.562 19.524C243.958 19.2307 244.449 19.0107 245.036 18.864V18.776C244.332 18.468 243.782 18.0133 243.386 17.412C243.004 16.8107 242.814 16.1067 242.814 15.3C242.814 14.728 242.916 14.2 243.122 13.716C243.327 13.232 243.62 12.8213 244.002 12.484C244.398 12.132 244.867 11.8607 245.41 11.67C245.952 11.4793 246.554 11.384 247.214 11.384C248.064 11.384 248.812 11.538 249.458 11.846V11.648C249.458 11.208 249.56 10.8413 249.766 10.548C249.971 10.2547 250.323 10.108 250.822 10.108H252.912V11.648H250.36V12.418C250.77 12.77 251.086 13.188 251.306 13.672C251.526 14.156 251.636 14.6987 251.636 15.3C251.636 15.872 251.526 16.4 251.306 16.884C251.1 17.368 250.807 17.786 250.426 18.138C250.044 18.4753 249.575 18.7393 249.018 18.93C248.475 19.1207 247.874 19.216 247.214 19.216C247.023 19.216 246.84 19.2087 246.664 19.194C246.488 19.1793 246.312 19.1573 246.136 19.128C245.96 19.1573 245.776 19.2087 245.586 19.282C245.395 19.3407 245.219 19.4287 245.058 19.546C244.896 19.6487 244.764 19.7733 244.662 19.92C244.559 20.0667 244.508 20.2353 244.508 20.426C244.508 20.7633 244.676 20.9907 245.014 21.108C245.351 21.2107 245.791 21.262 246.334 21.262H248.842C250.308 21.262 251.372 21.5407 252.032 22.098C252.692 22.6407 253.022 23.374 253.022 24.298ZM251.372 24.386C251.372 23.9313 251.188 23.5647 250.822 23.286C250.455 23.022 249.817 22.89 248.908 22.89H244.97C244.207 23.198 243.826 23.7113 243.826 24.43C243.826 24.9287 244.024 25.354 244.42 25.706C244.816 26.0727 245.476 26.256 246.4 26.256H248.116C249.142 26.256 249.942 26.0947 250.514 25.772C251.086 25.464 251.372 25.002 251.372 24.386ZM247.214 17.852C248.094 17.852 248.739 17.6467 249.15 17.236C249.575 16.8253 249.788 16.2827 249.788 15.608V14.97C249.788 14.2953 249.575 13.76 249.15 13.364C248.739 12.9533 248.094 12.748 247.214 12.748C246.334 12.748 245.688 12.9533 245.278 13.364C244.867 13.76 244.662 14.2953 244.662 14.97V15.608C244.662 16.2827 244.867 16.8253 245.278 17.236C245.688 17.6467 246.334 17.852 247.214 17.852ZM255.059 23V11.648H256.687V12.968H256.775C256.951 12.528 257.2 12.154 257.523 11.846C257.846 11.538 258.322 11.384 258.953 11.384C259.613 11.384 260.104 11.5527 260.427 11.89C260.75 12.2127 260.948 12.638 261.021 13.166H261.087C261.292 12.6527 261.586 12.2273 261.967 11.89C262.348 11.5527 262.876 11.384 263.551 11.384C264.475 11.384 265.091 11.7067 265.399 12.352C265.722 12.9973 265.883 13.9213 265.883 15.124V23H264.255V15.41C264.255 14.442 264.152 13.7747 263.947 13.408C263.756 13.0267 263.397 12.836 262.869 12.836C262.4 12.836 262.018 12.99 261.725 13.298C261.432 13.5913 261.285 14.046 261.285 14.662V23H259.657V15.41C259.657 14.442 259.554 13.7747 259.349 13.408C259.158 13.0267 258.806 12.836 258.293 12.836C257.824 12.836 257.435 12.99 257.127 13.298C256.834 13.5913 256.687 14.046 256.687 14.662V23H255.059Z" fill="white"/>
<path d="M56 26.74H69.2V28.06H56V26.74ZM69.1914 26.74H82.3914V28.06H69.1914V26.74ZM82.3828 26.74H95.5828V28.06H82.3828V26.74ZM95.5742 26.74H108.774V28.06H95.5742V26.74ZM108.766 26.74H121.966V28.06H108.766V26.74ZM121.957 26.74H135.157V28.06H121.957V26.74ZM135.148 26.74H148.348V28.06H135.148V26.74ZM148.34 26.74H161.54V28.06H148.34V26.74ZM161.531 26.74H174.731V28.06H161.531V26.74ZM174.723 26.74H187.923V28.06H174.723V26.74ZM187.914 26.74H201.114V28.06H187.914V26.74ZM201.105 26.74H214.305V28.06H201.105V26.74ZM214.297 26.74H227.497V28.06H214.297V26.74ZM227.488 26.74H240.688V28.06H227.488V26.74ZM240.68 26.74H253.88V28.06H240.68V26.74ZM253.871 26.74H267.071V28.06H253.871V26.74Z" fill="white"/>
</svg>
